<svg width="31" height="25" viewBox="0 0 31 25" fill="none" xmlns="http://www.w3.org/2000/svg">
<path d="M27.7437 6.28554C27.7625 6.55147 27.7625 6.8174 27.7625 7.08578C27.7625 15.2635 21.4125 24.6949 9.80125 24.6949V24.69C6.37125 24.6949 3.0125 23.7316 0.125 21.9154C0.62375 21.9743 1.125 22.0037 1.6275 22.0049C4.47 22.0074 7.23125 21.0723 9.4675 19.3505C6.76625 19.3002 4.3975 17.5735 3.57 15.0527C4.51625 15.2316 5.49125 15.1949 6.42 14.9461C3.475 14.3627 1.35625 11.826 1.35625 8.8799C1.35625 8.85294 1.35625 8.82721 1.35625 8.80147C2.23375 9.28064 3.21625 9.54657 4.22125 9.57598C1.4475 7.75858 0.5925 4.14093 2.2675 1.3125C5.4725 5.17892 10.2013 7.52941 15.2775 7.77819C14.7688 5.62868 15.4637 3.37623 17.1038 1.8652C19.6462 -0.477941 23.645 -0.357843 26.035 2.13358C27.4487 1.86029 28.8038 1.35172 30.0438 0.631128C29.5725 2.06373 28.5862 3.28064 27.2687 4.05392C28.52 3.90931 29.7425 3.58088 30.8937 3.07966C30.0462 4.32476 28.9788 5.40931 27.7437 6.28554Z" fill="white"/>
</svg>
